<svg id="レイヤー_1" data-name="レイヤー 1" xmlns="http://www.w3.org/2000/svg" viewBox="0 0 368.84 793.99"><defs><style>.cls-1{fill:#e8e8e8;}.cls-2,.cls-3{stroke:#000;stroke-miterlimit:10;}.cls-2{stroke-width:4px;}.cls-3{fill:none;stroke-linecap:round;stroke-width:4.86px;}.cls-4{fill:#020202;}</style></defs><path class="cls-1" d="M45.81,2H322.16a44.68,44.68,0,0,1,44.68,44.68v4.14a0,0,0,0,1,0,0H2a0,0,0,0,1,0,0v-5A43.81,43.81,0,0,1,45.81,2Z"/><path class="cls-1" d="M2,743.18H366.84a0,0,0,0,1,0,0v4.14A44.68,44.68,0,0,1,322.16,792H45.81A43.81,43.81,0,0,1,2,748.19v-5A0,0,0,0,1,2,743.18Z"/><path class="cls-2" d="M328,8.9a35.4,35.4,0,0,1,35.36,35.36V753.8A35.4,35.4,0,0,1,328,789.16H43.61A35.4,35.4,0,0,1,8.25,753.8V44.26A35.4,35.4,0,0,1,43.61,8.9H328M328,4H43.61A40.25,40.25,0,0,0,3.38,44.26V753.8A40.24,40.24,0,0,0,43.61,794H328a40.24,40.24,0,0,0,40.23-40.23V44.26A40.25,40.25,0,0,0,328,4Z" transform="translate(-1.38 -2.03)"/><line class="cls-3" x1="125.2" y1="776.82" x2="253.1" y2="776.82"/><path d="M73,7.93l2.82,10.86C78,27.06,86,33.54,93.75,33.54H277.82c7.84,0,15.78-6.48,17.91-14.75l2.84-10.86Z" transform="translate(-1.38 -2.03)"/><path class="cls-4" d="M316.82,24.1l1.5,1.5a6.4,6.4,0,0,1,9,0l1.51-1.5A8.53,8.53,0,0,0,316.82,24.1Z" transform="translate(-1.38 -2.03)"/><path class="cls-4" d="M319.08,26.36l1.5,1.5a3.21,3.21,0,0,1,4.52,0l1.51-1.5A5.32,5.32,0,0,0,319.08,26.36Z" transform="translate(-1.38 -2.03)"/><path class="cls-4" d="M321.34,28.62l1.5,1.5,1.51-1.5A2.11,2.11,0,0,0,321.34,28.62Z" transform="translate(-1.38 -2.03)"/><polygon class="cls-4" points="333.06 26.35 335.82 26.35 333.06 23.06 333.06 26.35"/><polygon class="cls-4" points="333.56 22.53 336.76 26.35 339.93 26.35 336.73 22.53 333.56 22.53"/><polygon class="cls-4" points="340.27 25.63 340.27 22.53 337.67 22.53 340.27 25.63"/><path class="cls-4" d="M343.39,24.41V22.83H332.7v7.3h10.69V28.55h1.29V24.41Zm-1.08,3.06v1.58h-8.53V23.91h8.53v1.58h1.29v2Z" transform="translate(-1.38 -2.03)"/><rect class="cls-4" x="297.77" y="25.31" width="2.28" height="2.87"/><rect class="cls-4" x="300.77" y="23.88" width="2.28" height="4.31"/><rect class="cls-4" x="303.78" y="22.44" width="2.28" height="5.74"/><rect class="cls-4" x="306.78" y="21.01" width="2.28" height="7.18"/><rect class="cls-4" x="309.78" y="19.57" width="2.28" height="8.61"/><path class="cls-4" d="M36.13,30.9H34.66V25.7c0-.25,0-.51,0-.79s0-.54,0-.78l-.29.28a3.65,3.65,0,0,1-.36.31l-.94.75-.73-.91,2.52-2h1.22Z" transform="translate(-1.38 -2.03)"/><path class="cls-4" d="M44.46,30.9H38.75V29.81l2.12-2.15c.42-.42.77-.79,1-1.09a3.9,3.9,0,0,0,.59-.86,2,2,0,0,0,.19-.87,1.07,1.07,0,0,0-.32-.86,1.25,1.25,0,0,0-.87-.28,2.33,2.33,0,0,0-1,.21,5.14,5.14,0,0,0-.94.61l-.81-1a6,6,0,0,1,1.16-.77,3.69,3.69,0,0,1,1.66-.33,3.12,3.12,0,0,1,1.38.28,2.16,2.16,0,0,1,.89.8,2.12,2.12,0,0,1,.32,1.16,2.85,2.85,0,0,1-.27,1.24,4.59,4.59,0,0,1-.78,1.13c-.34.38-.74.79-1.21,1.22L40.6,29.56v.07h3.86Z" transform="translate(-1.38 -2.03)"/><path class="cls-4" d="M49.33,23.63a.79.79,0,1,1-.79-.79A.78.78,0,0,1,49.33,23.63Zm0,5.67a.79.79,0,1,1-.79-.78A.78.78,0,0,1,49.33,29.3Z" transform="translate(-1.38 -2.03)"/><path class="cls-4" d="M57.65,26.73a8.13,8.13,0,0,1-.28,2.3,2.88,2.88,0,0,1-.91,1.47,2.58,2.58,0,0,1-1.67.52,2.34,2.34,0,0,1-2.16-1.14,6,6,0,0,1-.69-3.15,8.3,8.3,0,0,1,.28-2.31A2.88,2.88,0,0,1,53.13,23a2.54,2.54,0,0,1,1.66-.52A2.36,2.36,0,0,1,57,23.57,6,6,0,0,1,57.65,26.73Zm-4.23,0a6.67,6.67,0,0,0,.3,2.3,1.13,1.13,0,0,0,2.14,0,6.66,6.66,0,0,0,.31-2.31,6.74,6.74,0,0,0-.31-2.31,1.13,1.13,0,0,0-2.14,0A6.78,6.78,0,0,0,53.42,26.73Z" transform="translate(-1.38 -2.03)"/><path class="cls-4" d="M64.33,26.73a8.51,8.51,0,0,1-.28,2.3,2.88,2.88,0,0,1-.91,1.47,2.58,2.58,0,0,1-1.67.52,2.34,2.34,0,0,1-2.16-1.14,6,6,0,0,1-.69-3.15,8.3,8.3,0,0,1,.28-2.31A2.93,2.93,0,0,1,59.8,23a2.56,2.56,0,0,1,1.67-.52,2.36,2.36,0,0,1,2.16,1.14A6.07,6.07,0,0,1,64.33,26.73Zm-4.23,0a6.67,6.67,0,0,0,.3,2.3,1.08,1.08,0,0,0,1.07.77A1.09,1.09,0,0,0,62.54,29a6.66,6.66,0,0,0,.31-2.31,6.74,6.74,0,0,0-.31-2.31,1.1,1.1,0,0,0-1.07-.77,1.08,1.08,0,0,0-1.07.77A6.78,6.78,0,0,0,60.1,26.73Z" transform="translate(-1.38 -2.03)"/></svg>