<svg xmlns="http://www.w3.org/2000/svg" viewBox="0 0 1267.6 181.35"><g id="レイヤー_2" data-name="レイヤー 2"><g id="レイヤー_1-2" data-name="レイヤー 1"><path d="M0,50.65H23.66v130.7H0ZM64.7,6.29H88.37V137H64.7Zm2.22,128.48H86.15V8.5H66.92Z"/><path d="M203.72,45.11a31.65,31.65,0,0,1-3.26,14.42A30.21,30.21,0,0,1,190.11,70.8q8.38,5,11.28,11.19t2.88,15.43q0,11.28-3.52,18.86a31.37,31.37,0,0,1-9.73,12.2A38.75,38.75,0,0,1,176.28,135,84.09,84.09,0,0,1,157.56,137H139.2c0,.74,0,1.51.09,2.32s.1,1.63.1,2.49q0,11.28-3.52,18.86a31.3,31.3,0,0,1-9.7,12.2,38.57,38.57,0,0,1-14.7,6.56,83.57,83.57,0,0,1-18.67,1.94h-49l.56-131.07H91.32a76.52,76.52,0,0,1,17.56,2l.19-46.4h47.05a79.39,79.39,0,0,1,18.15,2,42.62,42.62,0,0,1,15.19,6.65,33.7,33.7,0,0,1,10.37,12.11Q203.71,34.2,203.72,45.11Zm-110,59.52a55.6,55.6,0,0,0,8-.55,21.34,21.34,0,0,0,6.93-2.22V76.53a23.84,23.84,0,0,0-6.93-2.68A36.9,36.9,0,0,0,93.91,73H67.47v31.61Zm-.37,53.8a46.3,46.3,0,0,0,7.58-.65,23,23,0,0,0,7-2.31,13.88,13.88,0,0,0,5.08-4.53,12.36,12.36,0,0,0,1.94-7.12,34.53,34.53,0,0,0-.18-3.69,24.56,24.56,0,0,0-.55-3.15h-5.74v-8.31a17,17,0,0,0-6.28-2.32,49.9,49.9,0,0,0-8.5-.64H67.47v32.72Zm108-113.32q0-10.17-3.7-17.29a31.52,31.52,0,0,0-9.89-11.46,41.65,41.65,0,0,0-14.42-6.29,75.32,75.32,0,0,0-17.28-1.94H111.33l-.56,126.64h46.77a80.21,80.21,0,0,0,17.75-1.85,37.35,37.35,0,0,0,14.05-6.2,29.06,29.06,0,0,0,9.24-11.55q3.33-7.22,3.33-17.75a30.38,30.38,0,0,0-3.7-15.34q-3.69-6.47-12.57-11.28,8.33-4.62,12-11.09A28.94,28.94,0,0,0,201.36,45.11Zm-18.53-.74a18.55,18.55,0,0,1-2,9.15,14.58,14.58,0,0,1-5.36,5.54,22.52,22.52,0,0,1-7.77,2.68,55.42,55.42,0,0,1-9.24.74H130v-36h28.65a38.78,38.78,0,0,1,8.78,1,25.9,25.9,0,0,1,7.77,3.14,17,17,0,0,1,5.54,5.55A15.25,15.25,0,0,1,182.83,44.37ZM130,116.28V79.12h28.47q11.64,0,17.56,4.07t5.92,16.27a14.66,14.66,0,0,1-2.13,8.22,15.71,15.71,0,0,1-5.64,5.18,24.69,24.69,0,0,1-7.76,2.68,48.88,48.88,0,0,1-8.32.74Zm50.65-71.91a12.87,12.87,0,0,0-1.94-7.21,16.09,16.09,0,0,0-5.08-4.9,21.85,21.85,0,0,0-7-2.77,37.51,37.51,0,0,0-7.95-.84H132.18V60.27h26.25a52.45,52.45,0,0,0,8.41-.65,20.51,20.51,0,0,0,7-2.4,13.53,13.53,0,0,0,4.9-4.81A15.41,15.41,0,0,0,180.61,44.37Zm-22.55,69.69a45.22,45.22,0,0,0,7.58-.65,22.83,22.83,0,0,0,7-2.31,13.83,13.83,0,0,0,5.09-4.53,12.4,12.4,0,0,0,1.94-7.11q0-10.72-5.36-14.42t-15.9-3.7H138.09a40,40,0,0,1,.74,8.13q0,11.84-6.65,19.78v4.81Z"/><path d="M331.64,6.1q.38,16.83.56,34.39t.18,34.38V83.1a21.82,21.82,0,0,1-.37,4v-.18a59.72,59.72,0,0,1-5.27,20.89,50.14,50.14,0,0,1-11.46,15.8,47.76,47.76,0,0,1-16.82,10A64.46,64.46,0,0,1,276.92,137a49.73,49.73,0,0,1-5.17-.27c-1.73-.19-3.45-.4-5.18-.65a60.6,60.6,0,0,1-6.1,18.95A46.34,46.34,0,0,1,249,169.24a50.75,50.75,0,0,1-16.36,9,63.84,63.84,0,0,1-20.43,3.14,56.36,56.36,0,0,1-20.61-3.7,52.08,52.08,0,0,1-16.73-10.35,53.22,53.22,0,0,1-11.74-15.9,59.19,59.19,0,0,1-5.64-20.33,30.63,30.63,0,0,1-.37-4.9V99.83q0-7.39.19-15.35V77.27c0-1.72,0-3.45.09-5.17s.09-3.45.09-5.18V50.47h23.66v79.3A23.71,23.71,0,0,0,183.84,141a27.85,27.85,0,0,0,7.12,8.69,33,33,0,0,0,10,5.54,33.76,33.76,0,0,0,22.56,0,31.88,31.88,0,0,0,9.89-5.54,28.54,28.54,0,0,0,7-8.69,23.59,23.59,0,0,0,2.68-11.19v-3.88a49.84,49.84,0,0,1-14.23-16.73A60.55,60.55,0,0,1,222.2,86.7a30.63,30.63,0,0,1-.37-4.9V55.46q0-7.4.19-15.34V32.91c0-1.73,0-3.45.09-5.18s.09-3.45.09-5.18V6.1h23.67V50.47h21.07q.38,15,.56,30.41t.18,30.59a30.2,30.2,0,0,0,9.24,1.3,34,34,0,0,0,11.28-1.94,32,32,0,0,0,9.89-5.55,28.46,28.46,0,0,0,7-8.69,23.69,23.69,0,0,0,2.68-11.18V6.1ZM310,8.32V85.41a25.67,25.67,0,0,1-2.86,12.11,30.81,30.81,0,0,1-7.49,9.33,33.94,33.94,0,0,1-10.63,6,35.49,35.49,0,0,1-24.22,0,35.32,35.32,0,0,1-10.72-6,30.21,30.21,0,0,1-7.58-9.33,25.67,25.67,0,0,1-2.86-12.11V8.32H224.42V22.55q0,4.82-.09,9.52t-.09,8q-.19,8-.19,15.34V81.62a31.76,31.76,0,0,0,.37,4.9,56,56,0,0,0,5.18,19.59,49.13,49.13,0,0,0,27.27,25.14,55.31,55.31,0,0,0,20.05,3.52,61.83,61.83,0,0,0,20.71-3.33,47.51,47.51,0,0,0,16.27-9.52,45.62,45.62,0,0,0,10.9-15.16,60.22,60.22,0,0,0,5-20.06,20.91,20.91,0,0,0,.37-3.79v-8q0-16.82-.18-33.28t-.56-33.27Z"/><path d="M351.42,53.24V5.92h23.66V50.28h5L418.53,5.92h31.05L396.34,67.48q6.29,8.31,13.13,17.1t13.68,17.74q6.84,9,13.59,17.75t13,16.91H418.53L375.08,81v56H351.42l-.13-47.69-19.62,22.55q6.29,8.32,13.14,17.1t13.69,17.75q6.83,9,13.58,17.75t13,16.91H353.87l-43.49-56v56H286.72V50.28h23.66v50.29Zm21.46,8.87v-54H353.47V134.77h19.41V74.32l46.77,60.45h25.52L393.4,67.48,444.79,8.13H419.65Z"/><path d="M400.22,50.65h23.67v130.7H400.22ZM464.93,6.29h23.66V137H464.93Zm2.21,128.48h19.23V8.5H467.14Z"/><path d="M675.48,6.1q.38,16.83.56,34.39t.18,34.38V83.1a21.82,21.82,0,0,1-.37,4v-.18a59.93,59.93,0,0,1-5.26,20.89,50.32,50.32,0,0,1-11.47,15.8,47.76,47.76,0,0,1-16.82,10A64.44,64.44,0,0,1,620.77,137a49.78,49.78,0,0,1-5.18-.27c-1.73-.19-3.45-.4-5.18-.65a60.6,60.6,0,0,1-6.1,18.95,46.34,46.34,0,0,1-11.46,14.23,50.75,50.75,0,0,1-16.36,9,63.84,63.84,0,0,1-20.43,3.14,56.36,56.36,0,0,1-20.61-3.7,52.19,52.19,0,0,1-16.73-10.35A53.22,53.22,0,0,1,507,151.4a59.19,59.19,0,0,1-5.64-20.33,30.63,30.63,0,0,1-.37-4.9V99.83q0-7.39.19-15.35V77.27c0-1.72,0-3.45.09-5.17s.09-3.45.09-5.18V50.47H525v79.3A23.6,23.6,0,0,0,527.69,141a27.68,27.68,0,0,0,7.11,8.69,33,33,0,0,0,10,5.54,33.73,33.73,0,0,0,22.55,0,31.76,31.76,0,0,0,9.89-5.54,28.4,28.4,0,0,0,7-8.69,23.59,23.59,0,0,0,2.68-11.19v-3.88a49.84,49.84,0,0,1-14.23-16.73A60.74,60.74,0,0,1,566,86.7a30.63,30.63,0,0,1-.37-4.9V55.46q0-7.4.19-15.34V32.91c0-1.73,0-3.45.09-5.18s.09-3.45.09-5.18V6.1h23.67V50.47h21.07q.38,15,.56,30.41t.18,30.59a30.22,30.22,0,0,0,9.25,1.3A34,34,0,0,0,632,110.83a32,32,0,0,0,9.89-5.55,28.31,28.31,0,0,0,7-8.69,23.69,23.69,0,0,0,2.68-11.18V6.1ZM653.85,8.32V85.41A25.67,25.67,0,0,1,651,97.52a30.81,30.81,0,0,1-7.49,9.33,33.94,33.94,0,0,1-10.63,6,35.46,35.46,0,0,1-24.21,0,35.25,35.25,0,0,1-10.73-6,30.21,30.21,0,0,1-7.58-9.33,25.67,25.67,0,0,1-2.86-12.11V8.32H568.26V22.55q0,4.82-.09,9.52t-.09,8q-.2,8-.19,15.34V81.62a31.76,31.76,0,0,0,.37,4.9,56,56,0,0,0,5.18,19.59,49.13,49.13,0,0,0,27.27,25.14,55.33,55.33,0,0,0,20.06,3.52,61.81,61.81,0,0,0,20.7-3.33,47.41,47.41,0,0,0,16.27-9.52,45.64,45.64,0,0,0,10.91-15.16,60.7,60.7,0,0,0,5-20.06,21.84,21.84,0,0,0,.37-3.79v-8q0-16.82-.19-33.28t-.55-33.27Z"/><path d="M653.48,157.87H708v23.48h-78.2V50.47h64.7V5.92h78.2V29.39H718.19V56.2H760.7v24H718.19v33.28h54.53V137h-78.2V124.6h-41Zm0-57.3h41V74h-41ZM716,78h42.52V58.42H716V27.36H770.5V8.13H696.56V134.77H770.5V115.54H716Z"/><path d="M787.14,133.29l3.14-4.25V5l45.85,62.67,13.49-18.12V86l2.1,3L914.14,5.18V137H890.48V81l-39.56,52.5-1.3-1.85v49.73H826l-.18-56-39.63,52.5-36.91-52.32v55.83H725.58v-132ZM792.5,11.83V134.77h19.23V74.13l39.07,55.46,41.88-55.27v60.45h19.26V12L851.72,92.8Zm21.44,85.59,5.74-8-5.74-8.31Z"/><path d="M1038.92,6.1q.38,16.83.56,34.39t.18,34.38V83.1a21.82,21.82,0,0,1-.37,4v-.18a59.72,59.72,0,0,1-5.27,20.89,50.14,50.14,0,0,1-11.46,15.8,47.76,47.76,0,0,1-16.82,10A64.46,64.46,0,0,1,984.2,137a49.73,49.73,0,0,1-5.17-.27c-1.73-.19-3.45-.4-5.18-.65a60.6,60.6,0,0,1-6.1,18.95,46.34,46.34,0,0,1-11.46,14.23,50.75,50.75,0,0,1-16.36,9,63.84,63.84,0,0,1-20.43,3.14,56.36,56.36,0,0,1-20.61-3.7,52.19,52.19,0,0,1-16.73-10.35,53.22,53.22,0,0,1-11.74-15.9,59.19,59.19,0,0,1-5.64-20.33,30.63,30.63,0,0,1-.37-4.9V99.83q0-7.39.19-15.35V77.27c0-1.72,0-3.45.09-5.17s.09-3.45.09-5.18V50.47h23.66v79.3A23.71,23.71,0,0,0,891.12,141a27.85,27.85,0,0,0,7.12,8.69,33,33,0,0,0,10,5.54,33.73,33.73,0,0,0,22.55,0,31.76,31.76,0,0,0,9.89-5.54,28.4,28.4,0,0,0,7-8.69,23.59,23.59,0,0,0,2.68-11.19v-3.88a49.84,49.84,0,0,1-14.23-16.73,60.74,60.74,0,0,1-6.66-22.46,30.63,30.63,0,0,1-.37-4.9V55.46q0-7.4.19-15.34V32.91c0-1.73,0-3.45.09-5.18s.09-3.45.09-5.18V6.1h23.67V50.47h21.07q.38,15,.56,30.41t.18,30.59a30.2,30.2,0,0,0,9.24,1.3,34,34,0,0,0,11.28-1.94,32,32,0,0,0,9.89-5.55,28.31,28.31,0,0,0,7-8.69,23.69,23.69,0,0,0,2.68-11.18V6.1Zm-21.63,2.22V85.41a25.67,25.67,0,0,1-2.86,12.11,30.81,30.81,0,0,1-7.49,9.33,33.94,33.94,0,0,1-10.63,6,35.46,35.46,0,0,1-24.21,0,35.25,35.25,0,0,1-10.73-6,30.21,30.21,0,0,1-7.58-9.33,25.67,25.67,0,0,1-2.86-12.11V8.32H931.7V22.55q0,4.82-.09,9.52t-.09,8q-.19,8-.19,15.34V81.62a31.76,31.76,0,0,0,.37,4.9,56,56,0,0,0,5.18,19.59,49.13,49.13,0,0,0,27.27,25.14,55.31,55.31,0,0,0,20.05,3.52,61.83,61.83,0,0,0,20.71-3.33,47.51,47.51,0,0,0,16.27-9.52,45.62,45.62,0,0,0,10.9-15.16,60.46,60.46,0,0,0,5-20.06,21.78,21.78,0,0,0,.36-3.79v-8q0-16.82-.18-33.28t-.55-33.27Z"/><path d="M1033.19,50.28q13.86,0,24,5.92V5.92h40.67a51.68,51.68,0,0,1,17.47,2.86A40,40,0,0,1,1129.23,17a37.87,37.87,0,0,1,9.15,13.12,44.67,44.67,0,0,1,3.33,17.75q0,17.38-7.77,27.54t-24.22,13.87L1146,137h-28.1L1082.35,90.4h-1.46V137h-23.67v-7.57a40.35,40.35,0,0,1-5.73,2.49,53.42,53.42,0,0,1-6.47,1.76l36.24,47.69h-28l-35.58-46.58h-1.48v46.58H992.52V50.28Zm-17,60.64h3.68c2.21.12,4.42.22,6.62.28s4.48.09,6.81.09q9.2,0,14.44-4.35T1053,93q0-9.06-5.24-14.15t-14.44-5.08h-17.11ZM1059.44,8.13V134.77h19V88.18h4.81L1119,134.77h22.55l-35.86-47q33.83-5.73,33.83-39.93a41.88,41.88,0,0,0-3.15-16.73,36.65,36.65,0,0,0-8.68-12.48,37.25,37.25,0,0,0-13.13-7.86,49.77,49.77,0,0,0-16.64-2.68Zm19,19h19.41q10.17,0,16.09,5.64t5.91,15.81q0,10.73-5.91,15.62t-16.09,4.9q-3.51,0-6.84-.09c-2.22-.06-4.43-.16-6.65-.28h-2c-.24,0-.86,0-1.84-.09s-1.67-.1-2-.1Zm2.41,39.38h3.67q3.32.2,6.63.28t6.8.09q9.19,0,14.44-4.34t5.24-14q0-9.06-5.24-14.14T1098,29.39h-17.1Z"/><path d="M1088.09,181.35l24-57.31q3.87-9,8-19.22t8.5-20.52Q1133,74,1137.18,63.78t8-19.41l23.1,55.38,8.51-20.13q3.89-9.06,8-19.21t8.5-20.51q4.35-10.33,8.51-20.5t8-19.4q3.69,8.87,7.67,18.28t8,18.94q4,9.51,7.86,18.74T1241,73.69l26.62,63.16h-26.44l-11.46-27.78H1190l-8.68,21.26,21.63,51h-26.44L1165,153.44h-39.75q-2.58,6.47-5.64,13.95t-5.63,14ZM1135.23,130h20q-2.58-6.42-4.81-11.47t-5.17-12Zm42,4.81,11.28-27.92h42.7l11.46,27.92,21.63-.15q-7-16.62-13.77-32.5t-13.41-31.76q-6.64-15.88-13.49-31.85T1209.92,5.92q-13.5,32.89-26.81,64.42t-27,64.43ZM1209.92,56l13.13,31.82h-26.26Zm-10,29.58h20c-1.72-4.28-3.33-8.1-4.8-11.46s-3.21-7.37-5.18-12Z"/></g></g></svg>